<svg width="186" height="128" viewBox="0 0 186 128" fill="none" xmlns="http://www.w3.org/2000/svg">
<g clip-path="url(#clip0)">
<path d="M132.989 87.5243C132.989 99.1081 126.059 103.153 117.51 103.153C108.961 103.153 102.031 99.1081 102.031 87.5243C102.031 75.9405 117.51 61.2041 117.51 61.2041C117.51 61.2041 132.989 75.9405 132.989 87.5243Z" fill="#B09858"/>
<path d="M117.105 91.6851L123.702 79.6915L117.13 90.1644L117.201 85.8054L121.748 77.1281L117.22 84.6517L117.348 76.8117L122.217 69.9037L117.368 75.5789L117.448 61.2031L116.966 79.4189L112.036 71.9195L116.907 80.9561L116.445 89.7119L116.432 89.4796L110.725 81.5559L116.414 90.3006L116.357 91.3956L116.346 91.4122L116.351 91.502L115.181 103.186H116.744L116.932 102.242L122.608 93.5191L116.946 101.38L117.105 91.6851Z" fill="#3F3D56"/>
<path d="M186 50.2781C186 72.4061 172.761 80.1323 156.431 80.1323C140.1 80.1323 126.861 72.4061 126.861 50.2781C126.861 28.1502 156.431 0 156.431 0C156.431 0 186 28.1502 186 50.2781Z" fill="#F2F2F2"/>
<path d="M155.354 76.7474L155.656 58.2284L168.26 35.3176L155.704 55.3232L155.84 46.9962L164.526 30.4206L155.876 44.7927V44.7929L156.121 29.8164L165.422 16.6201L156.159 27.4614L156.312 0L155.351 36.3539L155.43 34.8542L145.973 20.471L155.278 37.733L154.397 54.459L154.371 54.0152L143.469 38.879L154.338 55.5835L154.228 57.6753L154.208 57.7068L154.217 57.8784L151.982 100.314H154.968L155.327 78.3951L166.169 61.7316L155.354 76.7474Z" fill="#3F3D56"/>
<path d="M184.786 96.6089C184.786 103.213 141.669 128 91.2648 128C40.8606 128 0 115.172 0 108.567C0 101.963 39.8577 109.813 90.2619 109.813C140.666 109.813 184.786 90.0043 184.786 96.6089Z" fill="#3F3D56"/>
<path opacity="0.1" d="M184.786 96.6089C184.786 103.213 141.669 128 91.2648 128C40.8606 128 0 115.172 0 108.567C0 101.963 39.8577 109.813 90.2619 109.813C140.666 109.813 184.786 90.0043 184.786 96.6089Z" fill="black"/>
<path d="M184.786 96.6089C184.786 103.213 141.669 120.526 91.2648 120.526C40.8606 120.526 0 115.172 0 108.568C0 101.963 39.8577 102.339 90.2619 102.339C140.666 102.339 184.786 90.0044 184.786 96.6089Z" fill="#3F3D56"/>
<path opacity="0.1" d="M92.2861 112.801C113.69 112.801 131.042 111.468 131.042 109.822C131.042 108.177 113.69 106.844 92.2861 106.844C70.8819 106.844 53.5303 108.177 53.5303 109.822C53.5303 111.468 70.8819 112.801 92.2861 112.801Z" fill="black"/>
<path d="M61.5835 50.1328C61.5835 50.1328 72.9296 50.3416 70.8285 52.325C68.7274 54.3084 60.8481 52.325 60.8481 52.325L61.5835 50.1328Z" fill="#A0616A"/>
<path d="M37.9437 26.0423C37.9437 26.0423 42.5247 25.2294 44.1175 28.9041C45.7103 32.5788 48.9815 43.0586 48.9815 43.0586C48.9815 43.0586 57.7357 48.8165 59.328 48.6274C60.9203 48.4382 63.6423 48.8242 63.143 50.5503C62.6437 52.2764 62.8653 54.2337 61.7159 54.4736C60.5664 54.7135 58.7382 52.4236 57.339 53.5265C55.9399 54.6295 43.4706 50.601 42.67 49.7662C41.8695 48.9315 35.2168 30.857 35.2168 30.857C35.2168 30.857 35.4829 25.9834 37.9437 26.0423Z" fill="#B09858"/>
<path d="M47.7688 103.633L48.294 108.017L43.8817 109.166L41.3604 108.017V104.155L47.7688 103.633Z" fill="#A0616A"/>
<path d="M35.8972 106.451L36.4225 110.835L32.0102 111.984L29.4888 110.835V106.973L35.8972 106.451Z" fill="#A0616A"/>
<path d="M48.1888 55.7176L50.1848 62.9205L53.1264 77.5352C53.1264 77.5352 53.9669 81.0844 52.286 85.3644C50.6051 89.6444 47.5584 103.633 48.1888 104.468C48.8191 105.303 41.0449 105.929 41.15 105.094C41.255 104.259 42.3056 92.7761 42.3056 92.7761C42.3056 92.7761 43.7764 82.6503 44.5118 81.3976C45.2472 80.1449 41.15 77.0132 41.15 77.0132C41.15 77.0132 40.0994 89.0181 38.5236 90.062C36.9477 91.1059 37.1578 107.286 36.4224 107.495C35.687 107.704 30.3292 108.539 29.6988 107.495C29.0685 106.451 29.6988 89.0181 29.6988 89.0181C29.6988 89.0181 33.2708 75.7605 32.5354 73.8815C31.8 72.0025 32.2202 63.9644 32.2202 63.9644C32.2202 63.9644 29.4887 57.8054 30.9595 54.5693L48.1888 55.7176Z" fill="#2F2E41"/>
<path d="M47.8738 15.6321C47.8738 15.6321 43.4614 21.0604 43.6715 23.4613C43.8816 25.8623 36.7378 19.0769 36.7378 19.0769C36.7378 19.0769 41.8856 12.1872 41.8856 10.7257C41.8856 9.26427 47.8738 15.6321 47.8738 15.6321Z" fill="#A0616A"/>
<path d="M47.8212 17.6672C51.6506 17.6672 54.7549 14.5826 54.7549 10.7774C54.7549 6.97234 51.6506 3.8877 47.8212 3.8877C43.9918 3.8877 40.8875 6.97234 40.8875 10.7774C40.8875 14.5826 43.9918 17.6672 47.8212 17.6672Z" fill="#A0616A"/>
<path d="M30.3472 51.8124C30.033 52.9753 29.6433 54.2938 29.699 55.4045C29.7347 56.1237 31.6562 56.5956 34.313 56.9046C36.7766 57.1917 39.8726 57.3378 42.6871 57.413C45.6423 57.4923 48.2845 57.4923 49.5546 57.4923C53.3366 57.4923 50.29 55.0913 48.8192 53.943C47.3484 52.7947 47.6636 36.5099 47.7686 34.4221C47.8737 32.3342 46.8231 26.2796 46.8231 25.1313C46.8231 23.983 44.3512 20.986 44.3512 20.986C44.3512 20.986 43.7765 22.626 41.4653 20.4338C39.154 18.2416 36.1074 17.6152 36.1074 17.6152C33.7962 18.4504 29.9091 27.6367 29.699 29.2025C29.6139 29.8383 29.6843 33.0942 29.8271 36.8116C30.0341 42.2451 30.3955 48.6682 30.6445 49.3499C30.8409 49.8875 30.6235 50.7894 30.3472 51.8124Z" fill="#B09858"/>
<path d="M41.5703 57.9102L42.3057 60.5199L39.4691 63.4429L38.5237 59.3715L41.5703 57.9102Z" fill="#A0616A"/>
<path d="M42.5159 106.869C42.5159 106.869 44.722 109.375 46.4029 107.704C48.0838 106.034 47.9788 104.99 48.2939 104.99C48.6091 104.99 53.3366 109.166 53.3366 109.166C53.3366 109.166 61.426 111.045 57.0136 112.402C52.6013 113.759 40.0996 112.82 40.0996 112.402C40.0996 111.984 39.7844 106.452 40.94 106.452L42.5159 106.869Z" fill="#2F2E41"/>
<path d="M30.6445 109.688C30.6445 109.688 32.8507 112.193 34.5316 110.523C36.2125 108.853 36.1074 107.809 36.4226 107.809C36.7378 107.809 41.4653 111.984 41.4653 111.984C41.4653 111.984 49.5546 113.863 45.1423 115.22C40.7299 116.577 28.2282 115.638 28.2282 115.22C28.2282 114.803 27.9131 109.27 29.0687 109.27L30.6445 109.688Z" fill="#2F2E41"/>
<path d="M40.0364 16.2773C39.8124 16.4211 39.5208 16.5668 39.2966 16.4235C38.4627 14.3571 37.8395 12.2128 37.4361 10.0229C37.2945 9.2537 37.1962 8.39857 37.6263 7.74367C37.7959 7.48538 38.0401 7.27416 38.1643 6.99153C38.3525 6.56351 38.2286 6.06808 38.2911 5.60516C38.4221 4.63535 39.3447 3.95893 40.2725 3.63087C41.2002 3.30282 42.2079 3.20105 43.0922 2.77058C43.9319 2.36184 44.6044 1.68395 45.3831 1.16954C46.1617 0.655128 47.1591 0.303406 48.0263 0.65101C48.7934 0.958517 49.2712 1.73547 49.9963 2.13107C50.4883 2.39953 51.0593 2.47423 51.6085 2.58946C53.135 2.91128 54.5681 3.5729 55.8001 4.52454C56.0999 4.73701 56.3584 5.00177 56.563 5.30595C57.4934 6.82813 55.8275 8.89761 56.5625 10.522L54.9735 9.27609C54.5492 8.90728 54.0707 8.60507 53.5544 8.37992C53.0281 8.18182 52.4048 8.1579 51.9267 8.45298C51.2557 8.8671 51.0738 9.73226 50.8394 10.4818C50.605 11.2313 50.0867 12.0624 49.2971 12.0432C48.2233 12.0171 47.8477 10.5279 46.8841 10.0565C46.2558 9.74914 45.4651 9.95154 44.9295 10.3998C44.394 10.848 44.0726 11.4983 43.8369 12.1535C43.6896 12.5629 43.5514 13.0244 43.2898 13.3793C43.0013 13.7707 42.6323 13.8022 42.3241 14.0945C41.5219 14.8554 41.0287 15.6403 40.0364 16.2773Z" fill="#2F2E41"/>
<path opacity="0.1" d="M30.3472 51.8121C31.653 53.6943 33.1249 55.6359 34.313 56.9043C36.7766 57.1913 39.8726 57.3375 42.6871 57.4126C42.1843 56.7352 41.5556 56.1598 40.835 55.7173C39.4692 54.8822 36.2125 44.9652 36.2125 44.9652C36.2125 44.9652 40.2046 34.7349 41.2552 30.8725C42.3057 27.01 38.2086 24.8178 38.2086 24.8178C36.3175 23.252 33.0608 26.9056 33.0608 26.9056C33.0608 26.9056 31.3988 31.8871 29.8271 36.8112C30.0341 42.2447 30.3955 48.6679 30.6445 49.3495C30.8409 49.8872 30.6235 50.7891 30.3472 51.8121Z" fill="black"/>
<path d="M37.8934 23.9829C37.8934 23.9829 41.9906 26.1751 40.9401 30.0375C39.8895 33.9 35.8973 44.1302 35.8973 44.1302C35.8973 44.1302 39.1541 54.0473 40.5198 54.8824C41.8856 55.7175 43.7766 57.7009 42.3058 58.7448C40.835 59.7887 39.7844 61.459 38.7339 60.937C37.6833 60.4151 37.6833 57.4921 35.8973 57.4921C34.1114 57.4921 26.8625 46.6356 26.7574 45.4873C26.6524 44.339 32.7457 26.0707 32.7457 26.0707C32.7457 26.0707 36.0024 22.417 37.8934 23.9829Z" fill="#B09858"/>
<path d="M123.089 52.5167L121.908 51.3423C121.218 50.6573 120.283 50.2725 119.308 50.2725C118.333 50.2725 117.398 50.6573 116.709 51.3423L93.7847 74.1213L70.8603 51.3423C70.171 50.6573 69.236 50.2725 68.2611 50.2725C67.2862 50.2725 66.3512 50.6573 65.6618 51.3423L64.48 52.5167C64.1386 52.8558 63.8679 53.2585 63.6831 53.7016C63.4984 54.1448 63.4033 54.6198 63.4033 55.0994C63.4033 55.5791 63.4984 56.0541 63.6831 56.4972C63.8679 56.9404 64.1386 57.343 64.48 57.6822L87.4043 80.4612L64.48 103.24C64.1386 103.579 63.8679 103.982 63.6831 104.425C63.4984 104.868 63.4033 105.343 63.4033 105.823C63.4033 106.303 63.4984 106.778 63.6831 107.221C63.8679 107.664 64.1386 108.067 64.48 108.406L65.6618 109.58C66.3512 110.265 67.2862 110.65 68.2611 110.65C69.236 110.65 70.171 110.265 70.8603 109.58L93.7847 86.8011L116.709 109.58C117.398 110.265 118.333 110.65 119.308 110.65C120.283 110.65 121.218 110.265 121.908 109.58L123.089 108.406C123.779 107.721 124.166 106.792 124.166 105.823C124.166 104.854 123.779 103.925 123.089 103.24L100.165 80.4612L123.089 57.6822C123.779 56.9972 124.166 56.0682 124.166 55.0994C124.166 54.1307 123.779 53.2017 123.089 52.5167Z" fill="#FF6584"/>
<path opacity="0.1" d="M63.6621 104.478L85.9057 82.3758L85.6916 82.1631L64.4802 103.24C64.1249 103.593 63.8464 104.014 63.6621 104.478Z" fill="black"/>
<path opacity="0.1" d="M64.1632 53.2571C64.8526 52.5722 65.7876 52.1873 66.7625 52.1873C67.7374 52.1873 68.6724 52.5722 69.3617 53.2571L92.2861 76.0361L115.21 53.2571C115.9 52.5722 116.835 52.1873 117.81 52.1873C118.785 52.1873 119.72 52.5722 120.409 53.2571L121.591 54.4315C122.098 54.9354 122.445 55.5757 122.591 56.2735C122.736 56.9713 122.673 57.6961 122.409 58.3586L123.09 57.6822C123.431 57.343 123.702 56.9404 123.886 56.4972C124.071 56.0541 124.166 55.5791 124.166 55.0994C124.166 54.6198 124.071 54.1448 123.886 53.7016C123.702 53.2585 123.431 52.8558 123.09 52.5167L121.908 51.3423C121.218 50.6573 120.283 50.2725 119.309 50.2725C118.334 50.2725 117.399 50.6573 116.709 51.3423L93.7849 74.1213L70.8606 51.3423C70.1712 50.6573 69.2362 50.2725 68.2613 50.2725C67.2864 50.2725 66.3514 50.6573 65.6621 51.3423L64.4802 52.5167C64.1249 52.8693 63.8464 53.2909 63.6621 53.7551L64.1632 53.2571Z" fill="black"/>
<path opacity="0.1" d="M100.379 80.6738L98.6665 82.3759L121.591 105.155C122.098 105.659 122.445 106.299 122.591 106.997C122.736 107.695 122.673 108.42 122.409 109.082L123.09 108.406C123.431 108.066 123.702 107.664 123.887 107.221C124.071 106.777 124.166 106.302 124.166 105.823C124.166 105.343 124.071 104.868 123.887 104.425C123.702 103.982 123.431 103.579 123.09 103.24L100.379 80.6738Z" fill="black"/>
<path d="M26.6933 95.8618C26.6933 105.483 20.9374 108.842 13.8371 108.842C6.73685 108.842 0.980957 105.483 0.980957 95.8618C0.980957 86.2411 13.8371 74.002 13.8371 74.002C13.8371 74.002 26.6933 86.2411 26.6933 95.8618Z" fill="#B09858"/>
<path d="M13.5004 99.3175L18.98 89.3563L13.521 98.0544L13.5803 94.434L17.3568 87.2272L13.5959 93.4759L13.7024 86.9645L17.7463 81.227L13.7191 85.9407L13.7855 74.001L13.3855 89.1299L9.2904 82.9014L13.3359 90.4065L12.9529 97.6787L12.9415 97.4856L8.20166 90.9048L12.9271 98.1676L12.8792 99.0771L12.8706 99.0908L12.8745 99.1654L11.9025 108.87H13.2012L13.3571 108.086L18.0709 100.841L13.3688 107.369L13.5004 99.3175Z" fill="#3F3D56"/>
</g>
<defs>
<clipPath id="clip0">
<rect width="186" height="128" fill="white"/>
</clipPath>
</defs>
</svg>
